<svg width="169" height="175" viewBox="0 0 169 175" fill="none" xmlns="http://www.w3.org/2000/svg">
<g filter="url(#filter0_f_99_1532)">
<path d="M84.3151 53.4983C76.4942 64.1169 75.1381 78.6085 82.0372 90.5581C88.9363 102.508 102.164 108.579 115.271 107.115C112.484 110.899 108.876 114.191 104.529 116.701C87.9809 126.255 66.9804 120.861 57.623 104.654C48.2655 88.4461 54.0947 67.5622 70.6427 58.0082C74.9901 55.4982 79.6449 54.0199 84.3151 53.4983Z" fill="#FFEE94"/>
</g>
<g filter="url(#filter1_i_99_1532)">
<path d="M83.5859 57.9729C76.4467 67.666 75.2088 80.8943 81.5065 91.8023C87.8042 102.71 99.8793 108.252 111.843 106.916C109.299 110.37 106.006 113.375 102.038 115.666C86.9322 124.388 67.7622 119.464 59.2204 104.669C50.6786 89.8744 55.9997 70.8109 71.1053 62.0897C75.0738 59.7985 79.3228 58.449 83.5859 57.9729Z" fill="url(#paint0_linear_99_1532)"/>
</g>
<g filter="url(#filter2_i_99_1532)">
<path d="M78.9565 110.32C79.0967 109.524 79.1699 108.705 79.1699 107.868C79.1699 100.046 72.7696 93.705 64.8744 93.705C59.005 93.705 53.9618 97.2095 51.7602 102.222C49.9766 100.696 47.6622 99.775 45.133 99.775C39.4936 99.775 34.922 104.355 34.922 110.004C34.922 110.319 34.9361 110.63 34.9639 110.937C32.2514 112.254 30.3837 115.016 30.3837 118.21C30.3837 122.68 34.041 126.303 38.5526 126.303H77.1277C81.6392 126.303 85.2965 122.68 85.2965 118.21C85.2965 114.363 82.5875 111.143 78.9565 110.32Z" fill="url(#paint1_linear_99_1532)"/>
</g>
<g filter="url(#filter3_i_99_1532)">
<path d="M116.397 61.0234C116.537 60.227 116.61 59.4078 116.61 58.5717C116.61 50.7494 110.21 44.4082 102.315 44.4082C96.4454 44.4082 91.4022 47.9128 89.2006 52.9251C87.417 51.3994 85.1026 50.4783 82.5734 50.4783C76.934 50.4783 72.3624 55.058 72.3624 60.7074C72.3624 61.022 72.3766 61.3333 72.4043 61.6406C69.6919 62.9569 67.8241 65.719 67.8241 68.9132C67.8241 73.3831 71.4815 77.0066 75.993 77.0066H114.568C119.08 77.0066 122.737 73.3831 122.737 68.9132C122.737 65.0663 120.028 61.8462 116.397 61.0234Z" fill="url(#paint2_linear_99_1532)"/>
</g>
<g filter="url(#filter4_di_99_1532)">
<path d="M91.1512 31.7354C87.8702 33.1924 86.5896 34.4236 85.4158 37.4707C84.4811 34.5177 83.3316 33.2006 79.6805 31.7354C83.4364 30.5116 84.4557 29.095 85.4158 26C86.5956 28.8525 87.3242 30.4093 91.1512 31.7354Z" fill="url(#paint3_linear_99_1532)"/>
</g>
<g filter="url(#filter5_di_99_1532)">
<path d="M57.7667 58.8798C54.4857 60.3368 53.2051 61.568 52.0314 64.6151C51.0966 61.6622 49.9472 60.345 46.296 58.8798C50.0519 57.656 51.0713 56.2394 52.0314 53.1444C53.2111 55.9969 53.9398 57.5537 57.7667 58.8798Z" fill="url(#paint4_linear_99_1532)"/>
</g>
<g filter="url(#filter6_di_99_1532)">
<path d="M110.495 90.3922C107.214 91.8492 105.934 93.0805 104.76 96.1276C103.825 93.1746 102.676 91.8574 99.0248 90.3922C102.781 89.1685 103.8 87.7519 104.76 84.6568C105.94 87.5094 106.669 89.0662 110.495 90.3922Z" fill="url(#paint5_linear_99_1532)"/>
</g>
<defs>
<filter id="filter0_f_99_1532" x="0.158264" y="0.498291" width="168.113" height="173.927" filterUnits="userSpaceOnUse" color-interpolation-filters="sRGB">
<feFlood flood-opacity="0" result="BackgroundImageFix"/>
<feBlend mode="normal" in="SourceGraphic" in2="BackgroundImageFix" result="shape"/>
<feGaussianBlur stdDeviation="26.5" result="effect1_foregroundBlur_99_1532"/>
</filter>
<filter id="filter1_i_99_1532" x="55.1449" y="57.9729" width="56.6984" height="66.0063" filterUnits="userSpaceOnUse" color-interpolation-filters="sRGB">
<feFlood flood-opacity="0" result="BackgroundImageFix"/>
<feBlend mode="normal" in="SourceGraphic" in2="BackgroundImageFix" result="shape"/>
<feColorMatrix in="SourceAlpha" type="matrix" values="0 0 0 0 0 0 0 0 0 0 0 0 0 0 0 0 0 0 127 0" result="hardAlpha"/>
<feOffset dy="4"/>
<feGaussianBlur stdDeviation="4"/>
<feComposite in2="hardAlpha" operator="arithmetic" k2="-1" k3="1"/>
<feColorMatrix type="matrix" values="0 0 0 0 1 0 0 0 0 1 0 0 0 0 1 0 0 0 0.55 0"/>
<feBlend mode="normal" in2="shape" result="effect1_innerShadow_99_1532"/>
</filter>
<filter id="filter2_i_99_1532" x="30.3837" y="93.705" width="54.9128" height="42.5984" filterUnits="userSpaceOnUse" color-interpolation-filters="sRGB">
<feFlood flood-opacity="0" result="BackgroundImageFix"/>
<feBlend mode="normal" in="SourceGraphic" in2="BackgroundImageFix" result="shape"/>
<feColorMatrix in="SourceAlpha" type="matrix" values="0 0 0 0 0 0 0 0 0 0 0 0 0 0 0 0 0 0 127 0" result="hardAlpha"/>
<feOffset dy="11"/>
<feGaussianBlur stdDeviation="5"/>
<feComposite in2="hardAlpha" operator="arithmetic" k2="-1" k3="1"/>
<feColorMatrix type="matrix" values="0 0 0 0 1 0 0 0 0 1 0 0 0 0 1 0 0 0 1 0"/>
<feBlend mode="normal" in2="shape" result="effect1_innerShadow_99_1532"/>
</filter>
<filter id="filter3_i_99_1532" x="67.8242" y="44.4082" width="54.9128" height="42.5984" filterUnits="userSpaceOnUse" color-interpolation-filters="sRGB">
<feFlood flood-opacity="0" result="BackgroundImageFix"/>
<feBlend mode="normal" in="SourceGraphic" in2="BackgroundImageFix" result="shape"/>
<feColorMatrix in="SourceAlpha" type="matrix" values="0 0 0 0 0 0 0 0 0 0 0 0 0 0 0 0 0 0 127 0" result="hardAlpha"/>
<feOffset dy="11"/>
<feGaussianBlur stdDeviation="5"/>
<feComposite in2="hardAlpha" operator="arithmetic" k2="-1" k3="1"/>
<feColorMatrix type="matrix" values="0 0 0 0 1 0 0 0 0 1 0 0 0 0 1 0 0 0 1 0"/>
<feBlend mode="normal" in2="shape" result="effect1_innerShadow_99_1532"/>
</filter>
<filter id="filter4_di_99_1532" x="70.913" y="26" width="29.0056" height="31.2382" filterUnits="userSpaceOnUse" color-interpolation-filters="sRGB">
<feFlood flood-opacity="0" result="BackgroundImageFix"/>
<feColorMatrix in="SourceAlpha" type="matrix" values="0 0 0 0 0 0 0 0 0 0 0 0 0 0 0 0 0 0 127 0" result="hardAlpha"/>
<feOffset dy="11"/>
<feGaussianBlur stdDeviation="4.38372"/>
<feColorMatrix type="matrix" values="0 0 0 0 0.285052 0 0 0 0 0.179688 0 0 0 0 0.9375 0 0 0 1 0"/>
<feBlend mode="normal" in2="BackgroundImageFix" result="effect1_dropShadow_99_1532"/>
<feBlend mode="normal" in="SourceGraphic" in2="effect1_dropShadow_99_1532" result="shape"/>
<feColorMatrix in="SourceAlpha" type="matrix" values="0 0 0 0 0 0 0 0 0 0 0 0 0 0 0 0 0 0 127 0" result="hardAlpha"/>
<feOffset dy="4"/>
<feGaussianBlur stdDeviation="2"/>
<feComposite in2="hardAlpha" operator="arithmetic" k2="-1" k3="1"/>
<feColorMatrix type="matrix" values="0 0 0 0 1 0 0 0 0 1 0 0 0 0 1 0 0 0 0.44 0"/>
<feBlend mode="normal" in2="shape" result="effect2_innerShadow_99_1532"/>
</filter>
<filter id="filter5_di_99_1532" x="37.5286" y="53.1444" width="29.0056" height="31.2382" filterUnits="userSpaceOnUse" color-interpolation-filters="sRGB">
<feFlood flood-opacity="0" result="BackgroundImageFix"/>
<feColorMatrix in="SourceAlpha" type="matrix" values="0 0 0 0 0 0 0 0 0 0 0 0 0 0 0 0 0 0 127 0" result="hardAlpha"/>
<feOffset dy="11"/>
<feGaussianBlur stdDeviation="4.38372"/>
<feColorMatrix type="matrix" values="0 0 0 0 0.285052 0 0 0 0 0.179688 0 0 0 0 0.9375 0 0 0 0.28 0"/>
<feBlend mode="normal" in2="BackgroundImageFix" result="effect1_dropShadow_99_1532"/>
<feBlend mode="normal" in="SourceGraphic" in2="effect1_dropShadow_99_1532" result="shape"/>
<feColorMatrix in="SourceAlpha" type="matrix" values="0 0 0 0 0 0 0 0 0 0 0 0 0 0 0 0 0 0 127 0" result="hardAlpha"/>
<feOffset dy="4"/>
<feGaussianBlur stdDeviation="2"/>
<feComposite in2="hardAlpha" operator="arithmetic" k2="-1" k3="1"/>
<feColorMatrix type="matrix" values="0 0 0 0 1 0 0 0 0 1 0 0 0 0 1 0 0 0 0.44 0"/>
<feBlend mode="normal" in2="shape" result="effect2_innerShadow_99_1532"/>
</filter>
<filter id="filter6_di_99_1532" x="90.2573" y="84.6569" width="29.0056" height="31.2382" filterUnits="userSpaceOnUse" color-interpolation-filters="sRGB">
<feFlood flood-opacity="0" result="BackgroundImageFix"/>
<feColorMatrix in="SourceAlpha" type="matrix" values="0 0 0 0 0 0 0 0 0 0 0 0 0 0 0 0 0 0 127 0" result="hardAlpha"/>
<feOffset dy="11"/>
<feGaussianBlur stdDeviation="4.38372"/>
<feColorMatrix type="matrix" values="0 0 0 0 0.285052 0 0 0 0 0.179688 0 0 0 0 0.9375 0 0 0 0.8 0"/>
<feBlend mode="normal" in2="BackgroundImageFix" result="effect1_dropShadow_99_1532"/>
<feBlend mode="normal" in="SourceGraphic" in2="effect1_dropShadow_99_1532" result="shape"/>
<feColorMatrix in="SourceAlpha" type="matrix" values="0 0 0 0 0 0 0 0 0 0 0 0 0 0 0 0 0 0 127 0" result="hardAlpha"/>
<feOffset dy="4"/>
<feGaussianBlur stdDeviation="2"/>
<feComposite in2="hardAlpha" operator="arithmetic" k2="-1" k3="1"/>
<feColorMatrix type="matrix" values="0 0 0 0 1 0 0 0 0 1 0 0 0 0 1 0 0 0 0.44 0"/>
<feBlend mode="normal" in2="shape" result="effect2_innerShadow_99_1532"/>
</filter>
<linearGradient id="paint0_linear_99_1532" x1="85.1405" y1="52.8324" x2="73.8068" y2="121.458" gradientUnits="userSpaceOnUse">
<stop stop-color="#FFEE94"/>
<stop offset="1" stop-color="#FF9900"/>
</linearGradient>
<linearGradient id="paint1_linear_99_1532" x1="33.8764" y1="123.393" x2="89.2743" y2="81.9656" gradientUnits="userSpaceOnUse">
<stop stop-color="white"/>
<stop offset="1" stop-color="white" stop-opacity="0.58"/>
</linearGradient>
<linearGradient id="paint2_linear_99_1532" x1="71.3168" y1="74.096" x2="126.715" y2="32.6689" gradientUnits="userSpaceOnUse">
<stop stop-color="white"/>
<stop offset="1" stop-color="white" stop-opacity="0.58"/>
</linearGradient>
<linearGradient id="paint3_linear_99_1532" x1="83.7566" y1="38.0082" x2="89.1548" y2="27.8728" gradientUnits="userSpaceOnUse">
<stop stop-color="#FF9900"/>
<stop offset="1" stop-color="#FFEE94"/>
</linearGradient>
<linearGradient id="paint4_linear_99_1532" x1="50.3722" y1="65.1526" x2="55.7703" y2="55.0172" gradientUnits="userSpaceOnUse">
<stop stop-color="#FF9900"/>
<stop offset="1" stop-color="#FFEE94"/>
</linearGradient>
<linearGradient id="paint5_linear_99_1532" x1="103.101" y1="96.665" x2="108.499" y2="86.5297" gradientUnits="userSpaceOnUse">
<stop stop-color="#FF9900"/>
<stop offset="1" stop-color="#FFEE94"/>
</linearGradient>
</defs>
</svg>
