<svg width="238" height="233" viewBox="0 0 238 233" fill="none" xmlns="http://www.w3.org/2000/svg">
<g filter="url(#filter0_i_99_1538)">
<path d="M168.278 93.2659C168.404 92.5529 168.47 91.8194 168.47 91.0708C168.47 84.0672 162.719 78.3898 155.625 78.3898C150.352 78.3898 145.82 81.5275 143.842 86.0152C142.24 84.6492 140.16 83.8245 137.888 83.8245C132.821 83.8245 128.713 87.9249 128.713 92.983C128.713 93.2646 128.726 93.5433 128.751 93.8185C126.314 94.9971 124.635 97.47 124.635 100.33C124.635 104.332 127.921 107.576 131.975 107.576H166.635C170.688 107.576 173.974 104.332 173.974 100.33C173.974 96.8856 171.54 94.0026 168.278 93.2659Z" fill="url(#paint0_linear_99_1538)"/>
</g>
<g filter="url(#filter1_f_99_1538)">
<rect x="77.3811" y="77" width="83.3898" height="78.5254" rx="39.2627" fill="#FFEF9A"/>
</g>
<g filter="url(#filter2_i_99_1538)">
<path d="M155.906 116.263C155.906 136.796 139.417 153.441 119.076 153.441C98.7351 153.441 82.2455 136.796 82.2455 116.263C82.2455 95.7299 98.7351 79.0847 119.076 79.0847C139.417 79.0847 155.906 95.7299 155.906 116.263Z" fill="url(#paint1_linear_99_1538)"/>
</g>
<g filter="url(#filter3_i_99_1538)">
<path d="M113.38 144.69C113.506 143.977 113.571 143.243 113.571 142.495C113.571 135.491 107.821 129.814 100.727 129.814C95.4532 129.814 90.9219 132.951 88.9437 137.439C87.3412 136.073 85.2617 135.248 82.9893 135.248C77.9223 135.248 73.8147 139.349 73.8147 144.407C73.8147 144.688 73.8274 144.967 73.8523 145.242C71.4152 146.421 69.7371 148.894 69.7371 151.754C69.7371 155.756 73.0232 159 77.0768 159H111.736C115.79 159 119.076 155.756 119.076 151.754C119.076 148.309 116.642 145.426 113.38 144.69Z" fill="url(#paint2_linear_99_1538)"/>
</g>
<defs>
<filter id="filter0_i_99_1538" x="124.635" y="78.3898" width="49.339" height="39.1864" filterUnits="userSpaceOnUse" color-interpolation-filters="sRGB">
<feFlood flood-opacity="0" result="BackgroundImageFix"/>
<feBlend mode="normal" in="SourceGraphic" in2="BackgroundImageFix" result="shape"/>
<feColorMatrix in="SourceAlpha" type="matrix" values="0 0 0 0 0 0 0 0 0 0 0 0 0 0 0 0 0 0 127 0" result="hardAlpha"/>
<feOffset dy="11"/>
<feGaussianBlur stdDeviation="5"/>
<feComposite in2="hardAlpha" operator="arithmetic" k2="-1" k3="1"/>
<feColorMatrix type="matrix" values="0 0 0 0 1 0 0 0 0 1 0 0 0 0 1 0 0 0 1 0"/>
<feBlend mode="normal" in2="shape" result="effect1_innerShadow_99_1538"/>
</filter>
<filter id="filter1_f_99_1538" x="0.381104" y="0" width="237.39" height="232.525" filterUnits="userSpaceOnUse" color-interpolation-filters="sRGB">
<feFlood flood-opacity="0" result="BackgroundImageFix"/>
<feBlend mode="normal" in="SourceGraphic" in2="BackgroundImageFix" result="shape"/>
<feGaussianBlur stdDeviation="38.5" result="effect1_foregroundBlur_99_1538"/>
</filter>
<filter id="filter2_i_99_1538" x="82.2455" y="79.0847" width="73.661" height="79.356" filterUnits="userSpaceOnUse" color-interpolation-filters="sRGB">
<feFlood flood-opacity="0" result="BackgroundImageFix"/>
<feBlend mode="normal" in="SourceGraphic" in2="BackgroundImageFix" result="shape"/>
<feColorMatrix in="SourceAlpha" type="matrix" values="0 0 0 0 0 0 0 0 0 0 0 0 0 0 0 0 0 0 127 0" result="hardAlpha"/>
<feOffset dy="5"/>
<feGaussianBlur stdDeviation="9"/>
<feComposite in2="hardAlpha" operator="arithmetic" k2="-1" k3="1"/>
<feColorMatrix type="matrix" values="0 0 0 0 1 0 0 0 0 1 0 0 0 0 1 0 0 0 0.81 0"/>
<feBlend mode="normal" in2="shape" result="effect1_innerShadow_99_1538"/>
</filter>
<filter id="filter3_i_99_1538" x="69.7371" y="129.814" width="49.339" height="39.1864" filterUnits="userSpaceOnUse" color-interpolation-filters="sRGB">
<feFlood flood-opacity="0" result="BackgroundImageFix"/>
<feBlend mode="normal" in="SourceGraphic" in2="BackgroundImageFix" result="shape"/>
<feColorMatrix in="SourceAlpha" type="matrix" values="0 0 0 0 0 0 0 0 0 0 0 0 0 0 0 0 0 0 127 0" result="hardAlpha"/>
<feOffset dy="11"/>
<feGaussianBlur stdDeviation="5"/>
<feComposite in2="hardAlpha" operator="arithmetic" k2="-1" k3="1"/>
<feColorMatrix type="matrix" values="0 0 0 0 1 0 0 0 0 1 0 0 0 0 1 0 0 0 1 0"/>
<feBlend mode="normal" in2="shape" result="effect1_innerShadow_99_1538"/>
</filter>
<linearGradient id="paint0_linear_99_1538" x1="127.774" y1="104.97" x2="177.422" y2="67.7112" gradientUnits="userSpaceOnUse">
<stop stop-color="white"/>
<stop offset="1" stop-color="white" stop-opacity="0.58"/>
</linearGradient>
<linearGradient id="paint1_linear_99_1538" x1="113.481" y1="136.499" x2="144.217" y2="83.0979" gradientUnits="userSpaceOnUse">
<stop stop-color="#FF9900"/>
<stop offset="1" stop-color="#FFEE94"/>
</linearGradient>
<linearGradient id="paint2_linear_99_1538" x1="72.8752" y1="156.394" x2="122.524" y2="119.135" gradientUnits="userSpaceOnUse">
<stop stop-color="white"/>
<stop offset="1" stop-color="white" stop-opacity="0.58"/>
</linearGradient>
</defs>
</svg>
